<?xml version="1.0" encoding="UTF-8" standalone="no"?>
<svg
   xmlns:dc="http://purl.org/dc/elements/1.1/"
   xmlns:cc="http://creativecommons.org/ns#"
   xmlns:rdf="http://www.w3.org/1999/02/22-rdf-syntax-ns#"
   xmlns:svg="http://www.w3.org/2000/svg"
   xmlns="http://www.w3.org/2000/svg"
   xmlns:xlink="http://www.w3.org/1999/xlink"
   xmlns:sodipodi="http://sodipodi.sourceforge.net/DTD/sodipodi-0.dtd"
   xmlns:inkscape="http://www.inkscape.org/namespaces/inkscape"
   inkscape:version="1.0 (4035a4fb49, 2020-05-01)"
   sodipodi:docname="undraw_alert_mc7b.svg"
   version="1.1"
   viewBox="0 0 983.63 745.7"
   height="745.7"
   width="983.63"
   data-name="Layer 1"
   id="5936c596-051a-40af-b9e7-1fcdf2961302">
  <metadata
     id="metadata94">
    <rdf:RDF>
      <cc:Work
         rdf:about="">
        <dc:format>image/svg+xml</dc:format>
        <dc:type
           rdf:resource="http://purl.org/dc/dcmitype/StillImage" />
      </cc:Work>
    </rdf:RDF>
  </metadata>
  <sodipodi:namedview
     inkscape:current-layer="5936c596-051a-40af-b9e7-1fcdf2961302"
     inkscape:window-maximized="1"
     inkscape:window-y="-8"
     inkscape:window-x="1912"
     inkscape:cy="308.96285"
     inkscape:cx="456.8331"
     inkscape:zoom="0.53322896"
     showgrid="false"
     id="namedview92"
     inkscape:window-height="1027"
     inkscape:window-width="1920"
     inkscape:pageshadow="2"
     inkscape:pageopacity="0"
     guidetolerance="10"
     gridtolerance="10"
     objecttolerance="10"
     borderopacity="1"
     bordercolor="#666666"
     pagecolor="#ffffff" />
  <defs
     id="defs29">
    <linearGradient
       gradientUnits="userSpaceOnUse"
       y2="693.5"
       x2="420.85"
       y1="723.28"
       x1="420.85"
       id="ba9aee23-baa1-4411-9fe4-0580915617e3">
      <stop
         id="stop2"
         stop-opacity="0.25"
         stop-color="gray"
         offset="0" />
      <stop
         id="stop4"
         stop-opacity="0.12"
         stop-color="gray"
         offset="0.54" />
      <stop
         id="stop6"
         stop-opacity="0.1"
         stop-color="gray"
         offset="1" />
    </linearGradient>
    <linearGradient
       xlink:href="#ba9aee23-baa1-4411-9fe4-0580915617e3"
       y2="77.15"
       x2="530.19"
       y1="631.15"
       x1="530.19"
       id="8739f0f8-02d9-4432-8f87-3cf82dfe0a34" />
    <linearGradient
       gradientUnits="userSpaceOnUse"
       y2="107.83"
       x2="414"
       y1="352.05"
       x1="414"
       id="aa9b5458-2d2d-464a-836e-4d64dcd27f19">
      <stop
         id="stop10"
         stop-opacity="0.12"
         offset="0" />
      <stop
         id="stop12"
         stop-opacity="0.09"
         offset="0.55" />
      <stop
         id="stop14"
         stop-opacity="0.02"
         offset="1" />
    </linearGradient>
    <linearGradient
       xlink:href="#ba9aee23-baa1-4411-9fe4-0580915617e3"
       y2="305.64"
       x2="414"
       y1="334.64"
       x1="414"
       id="a3b91e71-d117-4cef-9b60-5fdfa21b479e" />
    <linearGradient
       xlink:href="#ba9aee23-baa1-4411-9fe4-0580915617e3"
       y2="210.64"
       x2="414"
       y1="296.64"
       x1="414"
       id="705825ec-b1bb-472c-aa75-ef9fc966de2f" />
    <linearGradient
       gradientUnits="userSpaceOnUse"
       gradientTransform="translate(0.2 -14.4) scale(1 1.03)"
       y2="378.25"
       x2="966.26"
       y1="815.71"
       x1="966.26"
       id="5f176dc8-07aa-4396-8169-181014e82da3">
      <stop
         id="stop19"
         stop-opacity="0.25"
         stop-color="gray"
         offset="0.01" />
      <stop
         id="stop21"
         stop-opacity="0.12"
         stop-color="gray"
         offset="0.54" />
      <stop
         id="stop23"
         stop-opacity="0.1"
         stop-color="gray"
         offset="1" />
    </linearGradient>
    <linearGradient
       xlink:href="#aa9b5458-2d2d-464a-836e-4d64dcd27f19"
       y2="400.85"
       x2="858.27"
       y1="519.31"
       x1="858.27"
       id="49755de2-ac10-4a71-89d3-2e7bf6e3c26c" />
    <linearGradient
       xlink:href="#ba9aee23-baa1-4411-9fe4-0580915617e3"
       y2="496.8"
       x2="858.27"
       y1="510.86"
       x1="858.27"
       id="0ffccb3b-4648-4426-a970-7d9f3a6cb9fe" />
    <linearGradient
       xlink:href="#ba9aee23-baa1-4411-9fe4-0580915617e3"
       y2="450.72"
       x2="858.27"
       y1="492.43"
       x1="858.27"
       id="7d2fdb97-c98e-4205-8a7c-ebf7b6e6fe48" />
  </defs>
  <title
     id="title31">alert</title>
  <path
     id="path33"
     fill="#e0e0e0"
     transform="translate(-108.19 -77.15)"
     d="M634.66,582.68s20.89,141,144.11,188H279.61c123.22-47,144.11-188,144.11-188Z" />
  <rect
     id="rect35"
     fill="url(#ba9aee23-baa1-4411-9fe4-0580915617e3)"
     height="29.78"
     width="503.87"
     y="693.5"
     x="168.91" />
  <rect
     id="rect37"
     fill="#f5f5f5"
     height="22.97"
     width="499.16"
     y="693.5"
     x="171.42" />
  <path
     id="path39"
     fill="url(#8739f0f8-02d9-4432-8f87-3cf82dfe0a34)"
     transform="translate(-108.19 -77.15)"
     d="M941.17,77.15h-822a11.12,11.12,0,0,0-11,11.22V610.24a20.72,20.72,0,0,0,20.53,20.91H931.65a20.72,20.72,0,0,0,20.53-20.91V88.37A11.12,11.12,0,0,0,941.17,77.15Z" />
  <path
     id="path41"
     fill="#f5f5f5"
     transform="translate(-108.19 -77.15)"
     d="M941.15,545.09H117.22V100A10.75,10.75,0,0,1,128,89.27H930.39A10.75,10.75,0,0,1,941.15,100Z" />
  <path
     id="path43"
     fill="#fff"
     transform="translate(-108.19 -77.15)"
     d="M921.1,620.28H137.27a20,20,0,0,1-20-20V545.09H941.15v55.14A20,20,0,0,1,921.1,620.28Z" />
  <rect
     id="rect47"
     fill="#e0e0e0"
     height="30.68"
     width="746.6"
     y="49.04"
     x="49.76" />
  <rect
     style="fill:#114d19;fill-opacity:1"
     id="rect45"
     fill="#6c63ff"
     height="348.29"
     width="745.6"
     y="68.72"
     x="50.76" />
  <circle
     id="circle49"
     fill="#ff5252"
     r="9"
     cy="64.72"
     cx="66" />
  <circle
     id="circle51"
     fill="#ff0"
     r="9"
     cy="64.72"
     cx="87" />
  <circle
     id="circle53"
     fill="#69f0ae"
     r="9"
     cy="64.72"
     cx="108" />
  <polygon
     id="polygon55"
     fill="url(#aa9b5458-2d2d-464a-836e-4d64dcd27f19)"
     points="414 107.83 279 352.05 549 352.05 414 107.83" />
  <polygon
     id="polygon57"
     fill="#fff"
     points="414 126.64 295.29 342.64 532.71 342.64 414 126.64" />
  <circle
     id="circle59"
     fill="url(#a3b91e71-d117-4cef-9b60-5fdfa21b479e)"
     r="14.5"
     cy="320.14"
     cx="414" />
  <circle
     id="circle61"
     fill="#6c63ff"
     r="12"
     cy="320.14"
     cx="414" />
  <rect
     id="rect63"
     fill="url(#705825ec-b1bb-472c-aa75-ef9fc966de2f)"
     height="86"
     width="8"
     y="210.64"
     x="410" />
  <rect
     id="rect65"
     fill="#6c63ff"
     height="84"
     width="5"
     y="211.14"
     x="411.5" />
  <rect
     id="rect67"
     fill="url(#5f176dc8-07aa-4396-8169-181014e82da3)"
     transform="translate(-108.99 -75.85) rotate(-0.08)"
     ry="10"
     rx="10"
     height="448.93"
     width="250.13"
     y="373.76"
     x="841.39" />
  <rect
     id="rect69"
     fill="#fff"
     transform="translate(-108.98 -75.85) rotate(-0.08)"
     ry="10"
     rx="10"
     height="427.15"
     width="238.61"
     y="378.4"
     x="847.14" />
  <rect
     style="fill:#114d19;fill-opacity:1"
     id="rect71"
     fill="#6c63ff"
     transform="translate(-108.97 -75.85) rotate(-0.08)"
     height="347.61"
     width="184.73"
     y="408.6"
     x="874.07" />
  <circle
     id="circle73"
     fill="#dbdbdb"
     transform="translate(-109.24 -75.85) rotate(-0.08)"
     r="14.73"
     cy="781.25"
     cx="966.71" />
  <circle
     id="circle75"
     fill="#dbdbdb"
     transform="matrix(1, 0, 0, 1, -108.71, -75.89)"
     r="2.95"
     cy="392.43"
     cx="938.2" />
  <rect
     id="rect77"
     fill="#dbdbdb"
     transform="translate(-108.71 -75.84) rotate(-0.08)"
     ry="1.5"
     rx="1.5"
     height="4.42"
     width="45.66"
     y="390.17"
     x="951.45" />
  <polygon
     id="polygon79"
     fill="url(#49755de2-ac10-4a71-89d3-2e7bf6e3c26c)"
     points="858.27 400.85 792.79 519.31 923.75 519.31 858.27 400.85" />
  <polygon
     id="polygon81"
     fill="#fff"
     points="858.27 409.97 800.69 514.74 915.85 514.74 858.27 409.97" />
  <circle
     id="circle83"
     fill="url(#0ffccb3b-4648-4426-a970-7d9f3a6cb9fe)"
     r="7.03"
     cy="503.83"
     cx="858.27" />
  <circle
     id="circle85"
     fill="#6c63ff"
     r="5.82"
     cy="503.83"
     cx="858.27" />
  <rect
     id="rect87"
     fill="url(#7d2fdb97-c98e-4205-8a7c-ebf7b6e6fe48)"
     height="41.71"
     width="3.88"
     y="450.72"
     x="856.33" />
  <rect
     id="rect89"
     fill="#6c63ff"
     height="40.74"
     width="2.43"
     y="450.96"
     x="857.06" />
</svg>
