<?xml version="1.0" encoding="UTF-8" standalone="no"?>
<svg
   xmlns:dc="http://purl.org/dc/elements/1.1/"
   xmlns:cc="http://creativecommons.org/ns#"
   xmlns:rdf="http://www.w3.org/1999/02/22-rdf-syntax-ns#"
   xmlns:svg="http://www.w3.org/2000/svg"
   xmlns="http://www.w3.org/2000/svg"
   xmlns:sodipodi="http://sodipodi.sourceforge.net/DTD/sodipodi-0.dtd"
   xmlns:inkscape="http://www.inkscape.org/namespaces/inkscape"
   inkscape:export-ydpi="96"
   inkscape:export-xdpi="96"
   inkscape:export-filename="C:\Users\leith\Documents\GitHub\OpenHackGBG2020\UI\Mockup\src\Online learning UI for presentation.png"
   inkscape:version="1.0 (4035a4fb49, 2020-05-01)"
   sodipodi:docname="Online learning UI for presentation.svg"
   version="1.1"
   viewBox="0 0 845.60229 760.28311"
   height="760.28311"
   width="845.60229"
   data-name="Layer 1"
   id="f7d3b1fb-15bd-4784-b19e-083bf25fb036">
  <metadata
     id="metadata115">
    <rdf:RDF>
      <cc:Work
         rdf:about="">
        <dc:format>image/svg+xml</dc:format>
        <dc:type
           rdf:resource="http://purl.org/dc/dcmitype/StillImage" />
      </cc:Work>
    </rdf:RDF>
  </metadata>
  <defs
     id="defs113" />
  <sodipodi:namedview
     inkscape:current-layer="f7d3b1fb-15bd-4784-b19e-083bf25fb036"
     inkscape:window-maximized="1"
     inkscape:window-y="-8"
     inkscape:window-x="1912"
     inkscape:cy="290.21641"
     inkscape:cx="907.44195"
     inkscape:zoom="0.56557881"
     showgrid="false"
     id="namedview111"
     inkscape:window-height="1027"
     inkscape:window-width="1920"
     inkscape:pageshadow="2"
     inkscape:pageopacity="0"
     guidetolerance="10"
     gridtolerance="10"
     objecttolerance="10"
     borderopacity="1"
     bordercolor="#666666"
     pagecolor="#ffffff" />
  <path
     id="path2"
     fill="#3f3d56"
     d="m 499.03299,185.32395 h -3.99878 V 75.778622 A 63.40185,63.40185 0 0 0 431.63242,12.376702 H 199.54568 a 63.40185,63.40185 0 0 0 -63.402,63.40172 V 676.75283 a 63.40186,63.40186 0 0 0 63.40179,63.40192 h 232.08664 a 63.40186,63.40186 0 0 0 63.402,-63.40167 V 263.3002 h 3.99884 z" />
  <path
     style="fill:#ffffff"
     id="path4"
     fill="#fff"
     d="m 434.19046,28.871682 h -30.295 a 22.49487,22.49487 0 0 1 -20.82713,30.99058 H 250.10885 A 22.4948,22.4948 0 0 1 229.2817,28.871702 h -28.2956 a 47.34781,47.34781 0 0 0 -47.34784,47.34774 V 676.31198 a 47.34781,47.34781 0 0 0 47.34778,47.34784 h 233.20442 a 47.34781,47.34781 0 0 0 47.34784,-47.34778 v 0 -600.092608 a 47.34777,47.34777 0 0 0 -47.34784,-47.34775 z" />
  <path
     id="path8"
     fill="#e6e6e6"
     d="m 627.93736,473.09423 2.02429,70.8512 21.59271,82.99707 c 0,0 -4.72339,14.17023 -1.34955,17.54413 3.37384,3.3739 18.89368,9.44684 18.89368,9.44684 L 656.27787,477.14288 Z" />
  <path
     id="path10"
     fill="#2f2e41"
     d="m 674.81718,644.1408 c 0,0 7.70032,16.94068 -3.08014,18.48072 -10.78046,1.54004 -60.57568,5.64691 -57.4956,-3.08014 3.08008,-8.72705 40.55493,-16.94068 40.55493,-16.94068 z" />
  <path
     id="path12"
     fill="#e6e6e6"
     d="m 703.51193,410.34033 c 0,0 -8.09729,43.86023 -13.49548,51.28277 -5.39819,7.42254 2.6991,61.40436 2.6991,61.40436 0,0 12.14593,77.59894 6.74774,89.74481 -5.39819,12.14587 -4.04865,8.09729 -3.37384,14.845 0.67481,6.74771 2.02429,12.14594 0,18.21888 -2.02429,6.07294 -2.02429,5.39819 -2.6991,8.772 -0.67481,3.37381 0,21.59271 0,21.59271 0,0 -29.01526,10.12158 -33.73865,-4.72339 0,0 6.74775,-9.44684 4.72339,-16.86932 a 89.86539,89.86539 0 0 1 -3.37384,-22.94226 v -14.17023 l -31.03955,-116.061 -7.42247,-41.83591 c 0,0 2.02429,-42.51071 9.44683,-46.55933 7.42254,-4.04862 71.52587,-2.69909 71.52587,-2.69909 z" />
  <path
     id="path14"
     fill="#2f2e41"
     d="m 691.36607,672.82708 c 0,0 10.12158,22.26752 -4.04865,24.29181 -14.17023,2.02429 -79.62323,7.42249 -75.57458,-4.04864 4.04865,-11.47113 53.30709,-22.26752 53.30709,-22.26752 z" />
  <circle
     id="circle16"
     fill="#a0616a"
     r="26.99091"
     cy="189.04292"
     cx="678.53827" />
  <path
     id="path18"
     fill="#a0616a"
     d="m 697.50486,200.97015 -0.50244,34.46924 -33.09125,0.11206 c 0,0 8.39826,-26.98331 4.63654,-32.62573 -3.76172,-5.64242 28.95715,-1.95557 28.95715,-1.95557 z" />
  <path
     id="path20"
     fill="#3f3d56"
     d="m 648.18058,254.46777 c 0,0 23.61707,-30.36478 41.83594,-17.5441 18.21887,12.82068 24.96661,43.18548 24.96661,43.18548 l -4.04864,85.02142 c 0,0 -9.44678,43.18546 -7.42249,45.20978 2.02429,2.02432 -2.02429,3.37387 -2.02429,3.37387 l -71.526,2.02432 c 0,0 2.02429,-2.6991 -4.04864,-10.79635 -6.07293,-8.09725 1.34954,-18.89365 0,-22.9423 -1.34954,-4.04865 22.26751,-127.53212 22.26751,-127.53212 z" />
  <path
     id="path22"
     fill="#ffb9b9"
     d="m 654.92832,428.5592 c 0,0 -1.34954,16.86932 -11.47113,19.56842 -3.79559,1.01215 -6.64227,-0.9173 -8.718,-3.72443 a 16.57144,16.57144 0 0 1 -0.52979,-18.59164 l 2.5,-4.00009 z" />
  <path
     id="path24"
     fill="#3f3d56"
     d="m 717.34483,220.39169 c 0,0 0.67474,13.49548 0,15.51977 -0.67474,2.02429 -1.34955,4.04865 0,6.07294 1.34955,2.02429 0.67474,8.772 -0.67481,9.44684 -1.34955,0.67484 2.6991,6.74774 1.34955,10.79636 -1.34955,4.04862 -2.69909,5.39819 -3.37384,6.74774 -0.67475,1.34955 -1.76178,3.76745 -1.76178,3.76745 0,0 -19.831,-42.22952 -36.02551,-32.10794 -16.19451,10.12158 -29.01526,13.49546 -29.01526,13.49546 0,0 8.77203,-47.23407 69.50165,-33.73862 z" />
  <path
     id="path26"
     fill="#3f3d56"
     d="m 687.99217,251.76864 c 0,0 21.59271,2.02432 20.24316,30.36478 -1.34955,28.34046 2.02429,72.87549 2.02429,72.87549 0,0 -37.11255,56.68094 -43.18548,60.72955 -6.07293,4.04861 -6.74774,3.37387 -6.073,6.74774 0.67474,3.37387 1.34955,6.073 -1.34955,8.772 a 23.299,23.299 0 0 1 -5.39819,4.04865 c 0,0 -21.59271,-7.42249 -19.56842,-14.17023 2.02429,-6.74774 11.47113,-17.5441 11.47113,-17.5441 0,0 16.19458,-26.31616 16.86932,-30.36477 0.67474,-4.04861 0.67481,-3.37387 2.6991,-5.3982 2.02429,-2.02433 7.42248,-10.12158 7.42248,-14.17022 v -12.82062 l -5.6571,-68.514 a 19.86234,19.86234 0 0 1 5.26758,-15.38235 c 3.21144,-3.35981 8.06524,-6.03404 15.23468,-5.17372 z" />
  <path
     id="path28"
     fill="#2f2e41"
     d="m 661.13182,168.22804 a 10.998,10.998 0 0 1 -10.19135,-2.3335 c -2.63763,-2.50631 -3.52417,-6.8488 -1.6474,-9.96592 1.62067,-2.69173 4.77264,-4.00817 7.772,-4.944 a 68.80872,68.80872 0 0 1 20.43592,-3.1171 c 3.30389,-0.001 6.75378,0.28062 9.58105,1.99013 1.39893,0.84585 2.58368,2.00755 3.96674,2.87907 2.54309,1.60252 5.59686,2.13506 8.389,3.24832 a 21.51956,21.51956 0 0 1 12.26423,12.98767 25.93065,25.93065 0 0 1 1.19189,6.10035 33.42484,33.42484 0 0 1 -2.91626,16.568 c -3.76508,8.20968 -10.93115,15.11261 -11.94366,24.08758 -3.85749,-3.23825 -4.98822,-8.67007 -7.97614,-12.72464 a 16.49818,16.49818 0 0 0 -9.00677,-6.11334 5.2444,5.2444 0 0 1 -2.72748,-1.21918 4.51829,4.51829 0 0 1 -0.85352,-2.45785 l -1.85193,-13.33426 c -0.37689,-2.71371 -0.886,-5.67932 -2.96844,-7.45969 a 10.55472,10.55472 0 0 0 -4.42175,-1.91879 71.3153,71.3153 0 0 0 -11.54242,-1.88212" />
  <path
     id="path30"
     style="isolation:isolate"
     opacity="0.1"
     d="m 706.97793,364.64788 -37.87938,49.15677 c 0,0 34.87938,-29.15677 37.87938,-49.15677 z" />
  <polygon
     transform="translate(-127.30321,-60.115406)"
     id="polygon32"
     style="isolation:isolate"
     opacity="0.1"
     points="776.281,449.763 794.281,412.763 797.922,370.338 798.281,416.763 " />
  <path
     d="m 210.72295,320.20871 c -2.45763,0 -4.45757,2.28274 -4.45757,5.08789 0,2.80515 1.99994,5.0879 4.45757,5.0879 h 210.14252 c 2.4577,0 4.4576,-2.28274 4.4576,-5.0879 0,-2.80516 -1.9999,-5.08789 -4.4576,-5.08789 z"
     fill="#e6e6e6"
     id="path43" />
  <path
     d="m 210.72295,440.20871 c -2.45763,0 -4.45757,2.28274 -4.45757,5.08789 0,2.80515 1.99994,5.0879 4.45757,5.0879 h 210.14252 c 2.4577,0 4.4576,-2.28274 4.4576,-5.0879 0,-2.80516 -1.9999,-5.08789 -4.4576,-5.08789 z"
     fill="#e6e6e6"
     id="path45" />
  <path
     d="m 210.72295,350.73609 c -2.45763,0 -4.45757,2.28274 -4.45757,5.0879 0,2.80516 1.99994,5.08789 4.45757,5.08789 h 90.42499 c 2.45764,0 4.45753,-2.28274 4.45753,-5.08789 0,-2.80515 -1.99989,-5.0879 -4.45753,-5.0879 z"
     fill="#e6e6e6"
     id="path47" />
  <path
     d="m 210.72295,379.83448 c -2.45763,0 -4.45757,2.28274 -4.45757,5.08789 0,2.80515 1.99994,5.0879 4.45757,5.0879 h 210.14252 c 2.4577,0 4.4576,-2.28274 4.4576,-5.0879 0,-2.80516 -1.9999,-5.08789 -4.4576,-5.08789 z"
     fill="#e6e6e6"
     id="path49" />
  <path
     d="m 210.72295,410.36189 c -2.45763,0 -4.45757,2.28274 -4.45757,5.0879 0,2.80516 1.99994,5.08789 4.45757,5.08789 h 90.42499 c 2.45764,0 4.45753,-2.28274 4.45753,-5.08789 0,-2.80515 -1.99989,-5.0879 -4.45753,-5.0879 z"
     fill="#e6e6e6"
     id="path51" />
  <path
     id="a2804879-ded6-4045-b20f-1f1dde9b938b"
     data-name="Path 39"
     d="m 459.83563,566.13351 h -279.619 a 5.184,5.184 0 0 1 -5.178,-5.178 v -69.361 a 5.184,5.184 0 0 1 5.178,-5.178 h 279.619 a 5.184,5.184 0 0 1 5.178,5.178 v 69.362 a 5.184,5.184 0 0 1 -5.178,5.177 z m -279.619,-77.646 a 3.11,3.11 0 0 0 -3.107,3.107 v 69.362 a 3.11,3.11 0 0 0 3.107,3.107 h 279.619 a 3.11,3.11 0 0 0 3.107,-3.107 v -69.362 a 3.11,3.11 0 0 0 -3.107,-3.107 z"
     fill="#e6e6e6" />
  <circle
     id="b9ad11c9-d8a0-4df6-8741-900b9ec46a35"
     data-name="Ellipse 5"
     cx="216.46262"
     cy="526.27448"
     r="21.747999"
     fill="#e6e6e6" />
  <path
     id="bd261eec-7ae0-49b0-bf26-57ff03972605"
     data-name="Path 40"
     d="m 266.69062,511.77653 a 3.625,3.625 0 0 0 0,7.249 h 170.878 a 3.625,3.625 0 1 0 0.119,-7.249 q -0.0595,-10e-4 -0.119,0 z"
     fill="#e6e6e6" />
  <path
     id="e80b4447-8c34-435b-ba6c-5300a190ab24"
     data-name="Path 41"
     d="m 266.69062,533.52453 a 3.625,3.625 0 0 0 0,7.249 h 170.878 a 3.625,3.625 0 1 0 0.119,-7.249 q -0.0595,-10e-4 -0.119,0 z"
     fill="#e6e6e6" />
  <path
     id="e55fcb7d-3a3b-45d8-b167-72fb2263dd92"
     data-name="Path 42"
     d="m 459.83563,682.12351 h -279.619 a 5.184,5.184 0 0 1 -5.178,-5.178 v -69.361 a 5.184,5.184 0 0 1 5.178,-5.178 h 279.619 a 5.184,5.184 0 0 1 5.178,5.178 v 69.362 a 5.184,5.184 0 0 1 -5.178,5.177 z m -279.619,-77.646 a 3.11,3.11 0 0 0 -3.107,3.107 v 69.362 a 3.11,3.11 0 0 0 3.107,3.107 h 279.619 a 3.11,3.11 0 0 0 3.107,-3.107 v -69.362 a 3.11,3.11 0 0 0 -3.107,-3.107 z"
     fill="#e6e6e6" />
  <circle
     id="a50d232f-7710-43e4-8fa9-6ef0443fc454"
     data-name="Ellipse 6"
     cx="216.46262"
     cy="642.26453"
     r="21.747999"
     fill="#e6e6e6" />
  <path
     id="e49b4965-a9e9-4371-9134-194e44e65c31"
     data-name="Path 43"
     d="m 266.69062,627.76653 a 3.625,3.625 0 0 0 0,7.249 h 170.878 a 3.625,3.625 0 1 0 0.119,-7.249 q -0.0595,-10e-4 -0.119,0 z"
     fill="#e6e6e6" />
  <path
     id="abc4586a-ac92-4255-aae6-84f53baad571"
     data-name="Path 44"
     d="m 266.69062,649.51453 a 3.625,3.625 0 0 0 0,7.249 h 170.878 a 3.625,3.625 0 1 0 0.119,-7.249 q -0.0595,-0.001 -0.119,0 z"
     fill="#e6e6e6" />
  <path
     style="stroke-width:0.829363"
     d="M 446.40048,278.78278 H 188.12245 a 8.916478,8.916478 0 0 1 -8.90614,-8.90614 V 124.4097 a 8.916478,8.916478 0 0 1 8.90614,-8.90613 h 258.27803 a 8.9161877,8.9161877 0 0 1 8.90613,8.90614 v 145.46693 a 8.916196,8.916196 0 0 1 -8.90613,8.90614 z M 188.12245,117.4827 a 6.934774,6.934774 0 0 0 -6.927,6.927 v 145.46694 a 6.934774,6.934774 0 0 0 6.927,6.92699 h 258.27803 a 6.9350808,6.9350808 0 0 0 6.92699,-6.92699 V 124.4097 a 6.9350808,6.9350808 0 0 0 -6.92699,-6.927 z"
     fill="#3f3d56"
     id="path42-3" />
  <circle
     style="stroke-width:0.829363"
     cx="273.26718"
     cy="180.68591"
     r="36.932034"
     fill="#e6e6e6"
     id="circle50" />
  <path
     style="stroke-width:0.829363;fill:#114f1b;fill-opacity:1"
     d="m 415.58183,245.90153 -43.35262,-75.08896 a 3.0872693,3.0872693 0 0 0 -5.34733,0 L 340.42511,216.637 300.98346,148.32188 a 3.9583324,3.9583324 0 0 0 -6.85597,0 l -55.58334,96.27316 a 3.9582826,3.9582826 0 0 0 3.42799,5.93741 h 170.93603 a 3.0873025,3.0873025 0 0 0 2.67366,-4.63092 z"
     fill="#6c63ff"
     id="path52-1" />
  <rect
     style="stroke-width:0.829363"
     x="198.01816"
     y="133.31584"
     width="15.833139"
     height="15.833139"
     fill="#3f3d56"
     id="rect54" />
</svg>
